<svg xmlns="http://www.w3.org/2000/svg" viewBox="0 0 64 64" width="64" height="64">
  <defs>
    <linearGradient id="letters" x1="0.15" y1="0.1" x2="0.85" y2="0.95">
      <stop offset="0" stop-color="#E9E5FF"/>
      <stop offset="0.45" stop-color="#A5B4FC"/>
      <stop offset="1" stop-color="#5B5FEF"/>
    </linearGradient>
    <linearGradient id="frame" x1="0.2" y1="0" x2="0.8" y2="1">
      <stop offset="0" stop-color="#C4B5FD"/>
      <stop offset="0.55" stop-color="#8B8CF5"/>
      <stop offset="1" stop-color="#6366F1"/>
    </linearGradient>
  </defs>

  <!-- Navy tile -->
  <rect width="64" height="64" rx="13" fill="#0A0F1D"/>

  <!-- Hang wire — thin V from frame corners to nail -->
  <path d="M20 12 L32 5 L44 12" fill="none" stroke="url(#frame)" stroke-width="1.8" stroke-linecap="round" stroke-linejoin="round"/>

  <!-- Frame outer -->
  <rect x="7" y="12" width="50" height="46" rx="7" fill="url(#frame)"/>

  <!-- Frame inner matte (navy) -->
  <rect x="12" y="17" width="40" height="36" rx="3.5" fill="#0A0F1D"/>

  <!-- Lowercase "ai" — Inter ExtraBold 800, converted to path for pixel-perfect rasterization -->
  <path fill="url(#letters)" d="M25.789 47.332L25.789 47.332Q24.012 47.332 22.626 46.726Q21.240 46.120 20.459 44.900Q19.679 43.680 19.679 41.854L19.679 41.854Q19.679 40.310 20.219 39.247Q20.758 38.185 21.721 37.521Q22.684 36.856 23.929 36.508Q25.174 36.159 26.585 36.043L26.585 36.043Q28.163 35.910 29.125 35.752Q30.088 35.595 30.537 35.279Q30.985 34.964 30.985 34.399L30.985 34.399L30.985 34.333Q30.985 33.686 30.686 33.237Q30.387 32.789 29.823 32.557Q29.258 32.324 28.461 32.324L28.461 32.324Q27.665 32.324 27.042 32.557Q26.419 32.789 26.021 33.221Q25.623 33.652 25.457 34.233L25.457 34.233L20.210 33.553Q20.576 31.959 21.646 30.755Q22.717 29.552 24.452 28.879Q26.187 28.207 28.511 28.207L28.511 28.207Q30.238 28.207 31.740 28.614Q33.243 29.021 34.372 29.809Q35.500 30.598 36.131 31.751Q36.762 32.905 36.762 34.399L36.762 34.399L36.762 47L31.317 47L31.317 44.394L31.167 44.394Q30.669 45.356 29.897 46.004Q29.125 46.651 28.104 46.992Q27.083 47.332 25.789 47.332ZM27.548 43.497L27.548 43.497Q28.528 43.497 29.316 43.099Q30.105 42.700 30.570 42.003Q31.035 41.306 31.035 40.393L31.035 40.393L31.035 38.616Q30.786 38.749 30.412 38.865Q30.039 38.981 29.590 39.073Q29.142 39.164 28.694 39.239Q28.246 39.313 27.831 39.380L27.831 39.380Q26.984 39.496 26.386 39.778Q25.789 40.061 25.473 40.509Q25.158 40.957 25.158 41.588L25.158 41.588Q25.158 42.202 25.473 42.625Q25.789 43.049 26.320 43.273Q26.851 43.497 27.548 43.497ZM45.891 47L40.097 47L40.097 28.439L45.891 28.439L45.891 47ZM42.986 26.265L42.986 26.265Q41.757 26.265 40.877 25.443Q39.998 24.621 39.998 23.476L39.998 23.476Q39.998 22.313 40.877 21.500Q41.757 20.687 42.986 20.687L42.986 20.687Q44.231 20.687 45.111 21.492Q45.991 22.297 45.991 23.476L45.991 23.476Q45.991 24.638 45.111 25.451Q44.231 26.265 42.986 26.265Z"/>
</svg>
