<?xml version="1.0" encoding="UTF-8"?>
<svg xmlns="http://www.w3.org/2000/svg" viewBox="0 0 480 300" width="480" height="300" preserveAspectRatio="xMidYMid slice" role="img" aria-label="Describe your idea — typing a prompt">
  <defs>
    <linearGradient id="bg1" x1="0" x2="1" y1="0" y2="1">
      <stop offset="0" stop-color="#12182B"/>
      <stop offset="1" stop-color="#0A0F1D"/>
    </linearGradient>
    <linearGradient id="glow1" x1="0" x2="0" y1="0" y2="1">
      <stop offset="0" stop-color="#818cf8" stop-opacity="0.28"/>
      <stop offset="1" stop-color="#818cf8" stop-opacity="0"/>
    </linearGradient>
  </defs>
  <rect width="480" height="300" fill="url(#bg1)"/>
  <ellipse cx="360" cy="80" rx="220" ry="90" fill="url(#glow1)"/>
  <g stroke="rgba(255,255,255,0.05)" stroke-width="1">
    <path d="M0 200h480"/><path d="M0 240h480"/>
    <path d="M80 0v300"/><path d="M160 0v300"/><path d="M240 0v300"/><path d="M320 0v300"/><path d="M400 0v300"/>
  </g>
  <g transform="translate(60,70)">
    <rect width="360" height="150" rx="12" fill="rgba(255,255,255,0.05)" stroke="rgba(255,255,255,0.14)"/>
    <rect x="18" y="18" width="80" height="8" rx="4" fill="rgba(255,255,255,0.28)"/>
    <rect x="18" y="42" width="300" height="10" rx="2" fill="#E7EEF8" opacity="0.88"/>
    <rect x="18" y="60" width="260" height="10" rx="2" fill="#E7EEF8" opacity="0.7"/>
    <rect x="18" y="78" width="180" height="10" rx="2" fill="#E7EEF8" opacity="0.55"/>
    <rect x="202" y="76" width="2" height="14" fill="#818cf8">
      <animate attributeName="opacity" values="1;0;1" dur="1s" repeatCount="indefinite"/>
    </rect>
    <g transform="translate(18,106)">
      <rect width="80" height="26" rx="6" fill="rgba(129,140,248,0.14)" stroke="rgba(129,140,248,0.35)"/>
      <rect x="10" y="8" width="36" height="10" rx="2" fill="#a5b4fc"/>
      <path d="M66 12l4 4 4-4" stroke="#a5b4fc" stroke-width="1.5" fill="none" stroke-linecap="round"/>
    </g>
    <g transform="translate(106,106)">
      <rect width="80" height="26" rx="6" fill="rgba(255,255,255,0.05)" stroke="rgba(255,255,255,0.15)"/>
      <rect x="10" y="8" width="30" height="10" rx="2" fill="rgba(255,255,255,0.35)"/>
    </g>
    <g transform="translate(194,106)">
      <rect width="80" height="26" rx="6" fill="rgba(255,255,255,0.05)" stroke="rgba(255,255,255,0.15)"/>
      <rect x="10" y="8" width="40" height="10" rx="2" fill="rgba(255,255,255,0.35)"/>
    </g>
  </g>
  <g transform="translate(400,50)" stroke="#818cf8" stroke-width="1.5" fill="none" stroke-linecap="round">
    <path d="M12 2v8M12 14v8M2 12h8M14 12h8"/>
  </g>
</svg>
